<?xml version="1.0" standalone="no"?>
<!DOCTYPE svg PUBLIC "-//W3C//DTD SVG 20010904//EN"
 "http://www.w3.org/TR/2001/REC-SVG-20010904/DTD/svg10.dtd">
<svg version="1.0" xmlns="http://www.w3.org/2000/svg"
 width="940.000000pt" height="940.000000pt" viewBox="0 0 940.000000 940.000000"
 preserveAspectRatio="xMidYMid meet">
<metadata>
Created by potrace 1.14, written by Peter Selinger 2001-2017
</metadata>
<g transform="translate(0.000000,940.000000) scale(0.100000,-0.100000)"
fill="#000000" stroke="none">
<path d="M4880 7383 c-49 -18 -61 -66 -40 -158 5 -22 12 -56 15 -75 4 -29 17
-98 39 -215 2 -11 6 -36 9 -55 14 -80 17 -96 22 -120 3 -14 8 -43 11 -66 l5
-41 -48 8 c-46 7 -372 4 -423 -4 -14 -2 -47 -8 -75 -12 -76 -12 -78 -12 -181
-40 -490 -133 -883 -420 -1158 -842 -135 -209 -248 -502 -281 -728 -3 -22 -9
-65 -14 -95 -10 -57 -7 -429 3 -490 64 -389 198 -695 434 -990 153 -191 409
-406 622 -522 135 -74 340 -147 490 -174 14 -3 32 -7 40 -9 45 -12 152 -20
290 -20 152 0 203 4 331 25 102 16 121 20 172 35 26 8 48 14 50 13 7 -2 161
48 226 74 330 132 613 342 831 617 l75 94 20 -28 c76 -106 80 -110 117 -113
29 -2 40 2 57 24 25 32 25 43 7 137 -8 40 -17 90 -21 112 -3 22 -8 47 -10 55
-17 57 -13 92 24 177 60 140 115 330 127 448 7 64 -11 95 -55 95 -35 0 -39 -4
-106 -95 -64 -87 -85 -111 -86 -98 0 4 -3 19 -5 33 -46 252 -75 410 -79 428
-3 18 0 22 13 18 9 -3 35 -7 57 -11 22 -3 74 -12 115 -20 200 -38 288 -54 315
-59 17 -2 68 -11 115 -20 47 -8 99 -18 115 -21 17 -2 41 -7 55 -10 51 -10 146
-28 165 -30 11 -2 72 -13 135 -25 179 -35 204 -36 229 -9 28 30 27 80 -1 106
-13 11 -108 78 -213 149 -308 209 -473 321 -670 454 l-184 125 26 20 c27 20
148 102 548 373 110 75 263 178 340 230 176 119 175 118 175 157 0 65 -45 89
-130 70 -14 -3 -38 -8 -55 -10 -16 -3 -88 -17 -160 -30 -71 -13 -148 -27 -170
-31 -22 -3 -83 -14 -135 -24 -81 -16 -145 -27 -245 -45 -42 -7 -253 -46 -328
-60 -105 -20 -120 -20 -112 4 3 11 10 43 15 73 10 61 77 430 85 468 3 14 12
63 20 110 8 47 17 96 20 110 3 14 14 75 25 135 11 61 21 119 24 130 25 128 37
219 32 239 -3 13 -17 31 -31 40 -22 14 -32 15 -60 6 -27 -9 -48 -33 -108 -123
-41 -62 -142 -211 -224 -332 -82 -121 -211 -310 -285 -419 -74 -110 -139 -201
-144 -203 -5 -1 -59 73 -121 165 -61 92 -151 226 -200 297 -49 72 -140 207
-203 300 -63 94 -118 172 -122 173 -5 2 -8 8 -8 13 0 16 -79 118 -99 129 -21
11 -28 11 -51 3z m361 -705 c38 -54 66 -98 64 -98 -9 0 -199 50 -202 54 -3 2
-63 323 -63 335 0 2 30 -40 67 -95 36 -54 97 -143 134 -196z m1058 135 c-16
-87 -31 -171 -33 -188 -3 -16 -10 -52 -15 -80 -6 -27 -12 -59 -14 -70 -6 -30
-16 -85 -23 -129 -3 -21 -8 -48 -10 -60 -4 -18 -32 -175 -51 -281 -12 -66 -7
-92 20 -110 34 -22 56 -21 212 9 77 15 165 31 195 37 30 5 66 11 80 14 14 3
61 11 105 19 44 8 157 29 250 46 94 17 181 33 194 35 31 5 34 8 -123 -98 -720
-486 -722 -487 -731 -517 -15 -49 1 -66 173 -183 271 -185 552 -375 629 -425
40 -26 72 -50 73 -53 0 -4 -17 -3 -37 2 -21 4 -54 11 -73 14 -19 3 -134 24
-255 46 -121 22 -229 42 -240 44 -11 1 -38 6 -60 10 -22 4 -98 17 -170 30 -71
13 -144 27 -162 30 -39 6 -84 -28 -86 -65 -1 -30 13 -132 19 -142 3 -4 7 -22
9 -40 2 -18 24 -145 50 -282 25 -137 42 -252 38 -256 -53 -44 -96 -71 -102
-64 -4 5 -70 101 -146 214 -305 452 -288 430 -334 430 -16 0 -36 -10 -48 -22
-20 -22 -163 -231 -417 -608 -134 -199 -137 -202 -153 -192 -8 5 -9 21 -2 57
6 28 14 73 19 100 14 79 37 210 60 330 26 144 29 161 34 188 8 45 26 143 31
167 17 82 17 130 2 153 -22 34 -52 37 -159 16 -51 -10 -109 -21 -128 -24 -20
-3 -47 -8 -60 -10 -14 -3 -38 -8 -55 -10 -16 -3 -75 -14 -130 -25 -55 -10
-120 -21 -145 -25 -25 -4 -76 -13 -113 -21 -38 -8 -90 -17 -117 -20 -45 -5
-48 -4 -52 20 -4 21 1 31 21 45 127 87 458 313 608 413 117 78 144 107 137
145 -3 15 -7 30 -10 35 -4 6 -220 155 -506 348 -66 44 -66 45 -51 70 8 14 31
44 51 67 l37 42 70 -14 c39 -8 79 -16 90 -19 11 -2 40 -7 65 -11 25 -4 54 -9
65 -11 170 -33 327 -56 348 -50 43 11 55 49 39 131 -7 39 -15 81 -17 95 -2 14
-13 74 -24 134 -12 60 -18 113 -14 117 5 5 26 11 48 15 22 3 59 9 81 13 23 5
65 8 94 7 l52 -1 99 -144 c54 -80 109 -151 123 -158 51 -27 71 -7 228 225 262
387 442 652 443 652 1 0 -11 -71 -26 -157z m-1279 -575 c7 -40 14 -82 17 -93
2 -11 6 -39 9 -62 l6 -42 -34 9 c-18 4 -104 21 -190 36 -121 22 -154 31 -146
41 26 32 284 182 315 183 6 0 16 -31 23 -72z m-436 -668 c118 -80 215 -148
216 -151 0 -4 -98 -73 -217 -155 -120 -81 -249 -169 -288 -196 -38 -26 -73
-48 -78 -48 -4 0 -7 60 -6 133 2 161 30 311 84 447 39 98 52 123 66 118 4 -2
104 -68 223 -148z m461 -827 c-4 -27 -13 -82 -21 -123 -18 -97 -36 -196 -59
-325 -1 -11 -6 -31 -9 -45 -3 -14 -8 -43 -11 -64 -8 -60 -34 -178 -40 -184 -6
-6 -132 77 -200 132 -74 60 -186 176 -244 253 -58 78 -156 251 -147 260 6 6
115 28 316 64 156 27 243 43 296 53 12 2 39 7 60 10 21 4 40 9 43 11 15 15 21
-1 16 -42z m720 -323 c43 -63 121 -177 173 -253 103 -152 104 -154 30 -177
-24 -8 -47 -17 -53 -20 -29 -21 -210 -69 -320 -86 -60 -10 -341 -12 -350 -3
-3 4 56 98 133 210 76 112 176 259 221 327 46 68 85 122 86 120 1 -2 37 -55
80 -118z"/>
</g>
</svg>
